<svg id="visual" viewBox="0 0 900 600" width="900" height="600" xmlns="http://www.w3.org/2000/svg" xmlns:xlink="http://www.w3.org/1999/xlink" version="1.1"><rect x="0" y="0" width="900" height="600" fill="#001220"></rect><defs><linearGradient id="grad1_0" x1="33.3%" y1="0%" x2="100%" y2="100%"><stop offset="20%" stop-color="#001220" stop-opacity="1"></stop><stop offset="80%" stop-color="#001220" stop-opacity="1"></stop></linearGradient></defs><defs><linearGradient id="grad2_0" x1="0%" y1="0%" x2="66.7%" y2="100%"><stop offset="20%" stop-color="#001220" stop-opacity="1"></stop><stop offset="80%" stop-color="#001220" stop-opacity="1"></stop></linearGradient></defs><g transform="translate(900, 0)"><path d="M0 486.7C-47.7 438.2 -95.4 389.6 -153.1 369.6C-210.8 349.5 -278.5 357.9 -332.3 332.3C-386.2 306.8 -426.3 247.3 -449.7 186.3C-473.1 125.2 -479.9 62.6 -486.7 0L0 0Z" fill="#FBAE3C"></path></g><g transform="translate(0, 600)"><path d="M0 -486.7C55.8 -464.7 111.5 -442.7 175.7 -424.1C239.8 -405.4 312.3 -390.1 344.2 -344.2C376.1 -298.2 367.3 -221.7 384.3 -159.2C401.3 -96.7 444 -48.4 486.7 0L0 0Z" fill="#FBAE3C"></path></g></svg>